<svg version="1.1" id="Layer_1" xmlns="http://www.w3.org/2000/svg" xmlns:xlink="http://www.w3.org/1999/xlink" x="0px" y="0px"
	 width="100%" viewBox="0 0 200 200" enable-background="new 0 0 200 200" xml:space="preserve">
<path fill="#2A2A2A" opacity="1.000000" stroke="none" 
	d="
M201.000000,50.000000 
	C201.000000,100.666664 201.000000,150.833328 201.000000,201.000000 
	C134.333328,201.000000 67.666664,201.000000 1.000000,201.000000 
	C1.000000,134.333328 1.000000,67.666664 1.000000,1.000000 
	C67.666664,1.000000 134.333328,1.000000 201.000000,1.000000 
	C201.000000,17.166666 201.000000,33.333332 201.000000,50.000000 
M198.341782,179.499847 
	C198.341782,121.053284 198.341782,62.606724 198.341782,4.064975 
	C133.183960,4.064975 68.503700,4.064975 3.547656,4.064975 
	C3.547656,68.907036 3.547656,133.342499 3.547656,198.059860 
	C68.385147,198.059860 133.120331,198.059860 198.341843,198.059860 
	C198.341843,192.073776 198.341843,186.286636 198.341782,179.499847 
z"/>
<path fill="#FCFCFC" opacity="1.000000" stroke="none" 
	d="
M198.341812,179.999680 
	C198.341843,186.286636 198.341843,192.073776 198.341843,198.059860 
	C133.120331,198.059860 68.385147,198.059860 3.547656,198.059860 
	C3.547656,133.342499 3.547656,68.907036 3.547656,4.064975 
	C68.503700,4.064975 133.183960,4.064975 198.341782,4.064975 
	C198.341782,62.606724 198.341782,121.053284 198.341812,179.999680 
M10.756072,38.499905 
	C10.756072,89.242340 10.756072,139.984772 10.756072,190.799469 
	C71.092361,190.799469 130.843567,190.799469 190.795288,190.799469 
	C190.795288,130.873444 190.795288,71.143982 190.795288,11.281023 
	C130.727234,11.281023 70.842941,11.281023 10.756068,11.281023 
	C10.756068,20.204674 10.756068,28.852287 10.756072,38.499905 
z"/>
<path fill="#010101" opacity="1.000000" stroke="none" 
	d="
M10.756070,37.999901 
	C10.756068,28.852287 10.756068,20.204674 10.756068,11.281023 
	C70.842941,11.281023 130.727234,11.281023 190.795288,11.281023 
	C190.795288,71.143982 190.795288,130.873444 190.795288,190.799469 
	C130.843567,190.799469 71.092361,190.799469 10.756072,190.799469 
	C10.756072,139.984772 10.756072,89.242340 10.756070,37.999901 
M62.438271,70.944496 
	C60.192036,73.347984 57.945805,75.751465 55.633430,78.225723 
	C73.093750,94.740044 90.295135,111.009445 107.805771,127.571350 
	C110.325584,122.906418 112.586723,118.720360 115.371201,113.565460 
	C113.436485,112.260773 111.374626,110.870346 109.305962,109.475334 
	C111.353470,106.832382 112.909256,104.907257 114.376205,102.916672 
	C122.059013,92.491455 128.097931,81.359360 129.574081,68.194427 
	C131.235413,53.378227 121.753235,43.462589 107.018364,45.237740 
	C102.143227,45.825054 97.244576,47.264214 92.670326,49.096786 
	C81.057266,53.749313 71.545784,61.504589 62.438271,70.944496 
M133.737946,86.329353 
	C131.983597,87.861275 131.313202,89.134819 133.680344,90.997299 
	C136.937866,93.560341 139.910843,96.499901 142.895950,99.391479 
	C151.279694,107.512520 159.360443,115.902344 163.345535,127.227386 
	C165.992386,134.749344 162.202286,139.264359 154.457031,137.569992 
	C150.131775,136.623764 145.698563,135.287506 141.870819,133.136246 
	C134.145782,128.794632 126.800873,123.776619 119.226212,118.991508 
	C116.982468,123.146538 114.645157,127.474823 111.837234,132.674622 
	C118.865349,136.986725 125.397926,141.514130 132.391830,145.155502 
	C141.293762,149.790329 150.809464,152.710022 161.077057,151.960403 
	C173.447845,151.057236 180.753372,141.900192 178.444489,129.750046 
	C174.098557,106.880363 158.516983,91.971581 141.648392,77.716629 
	C138.931900,80.656342 136.565826,83.216835 133.737946,86.329353 
M25.887909,134.281586 
	C26.964108,147.469864 35.322701,154.349945 48.483402,152.647263 
	C67.408127,150.198853 81.663429,139.468613 94.332825,127.145416 
	C90.819969,123.052109 87.584999,119.282600 84.242401,115.387672 
	C80.461952,118.748360 77.563400,122.083321 73.986633,124.346336 
	C66.611855,129.012375 59.209877,133.925690 51.191700,137.201675 
	C43.408554,140.381607 38.767593,136.017731 41.063099,128.011810 
	C42.855900,121.759132 45.935810,115.707832 49.373394,110.141113 
	C52.884830,104.454773 57.529774,99.468399 61.108124,94.903267 
	C57.707287,91.018051 54.457527,87.305435 50.928429,83.273697 
	C48.036549,86.587250 45.381569,89.326767 43.070293,92.330742 
	C33.723919,104.478294 25.968132,117.328827 25.887909,134.281586 
z"/>
<path fill="#FBFBFB" opacity="1.000000" stroke="none" 
	d="
M62.702705,70.707382 
	C71.545784,61.504589 81.057266,53.749313 92.670326,49.096786 
	C97.244576,47.264214 102.143227,45.825054 107.018364,45.237740 
	C121.753235,43.462589 131.235413,53.378227 129.574081,68.194427 
	C128.097931,81.359360 122.059013,92.491455 114.376205,102.916672 
	C112.909256,104.907257 111.353470,106.832382 109.305962,109.475334 
	C111.374626,110.870346 113.436485,112.260773 115.371201,113.565460 
	C112.586723,118.720360 110.325584,122.906418 107.805771,127.571350 
	C90.295135,111.009445 73.093750,94.740044 55.633430,78.225723 
	C57.945805,75.751465 60.192036,73.347984 62.702705,70.707382 
M94.515739,95.000565 
	C95.721756,96.077934 96.927765,97.155296 98.125587,98.225349 
	C107.230103,88.389153 113.677666,77.535950 115.540031,69.078209 
	C117.174171,61.656937 113.222527,57.373528 105.959702,59.263962 
	C94.192955,62.326706 85.363716,69.962395 76.928307,78.351036 
	C82.887337,83.985092 88.449944,89.244339 94.515739,95.000565 
z"/>
<path fill="#FAFAFA" opacity="1.000000" stroke="none" 
	d="
M133.968842,86.053345 
	C136.565826,83.216835 138.931900,80.656342 141.648392,77.716629 
	C158.516983,91.971581 174.098557,106.880363 178.444489,129.750046 
	C180.753372,141.900192 173.447845,151.057236 161.077057,151.960403 
	C150.809464,152.710022 141.293762,149.790329 132.391830,145.155502 
	C125.397926,141.514130 118.865349,136.986725 111.837234,132.674622 
	C114.645157,127.474823 116.982468,123.146538 119.226212,118.991508 
	C126.800873,123.776619 134.145782,128.794632 141.870819,133.136246 
	C145.698563,135.287506 150.131775,136.623764 154.457031,137.569992 
	C162.202286,139.264359 165.992386,134.749344 163.345535,127.227386 
	C159.360443,115.902344 151.279694,107.512520 142.895950,99.391479 
	C139.910843,96.499901 136.937866,93.560341 133.680344,90.997299 
	C131.313202,89.134819 131.983597,87.861275 133.968842,86.053345 
z"/>
<path fill="#FBFBFB" opacity="1.000000" stroke="none" 
	d="
M25.871918,133.823486 
	C25.968132,117.328827 33.723919,104.478294 43.070293,92.330742 
	C45.381569,89.326767 48.036549,86.587250 50.928429,83.273697 
	C54.457527,87.305435 57.707287,91.018051 61.108124,94.903267 
	C57.529774,99.468399 52.884830,104.454773 49.373394,110.141113 
	C45.935810,115.707832 42.855900,121.759132 41.063099,128.011810 
	C38.767593,136.017731 43.408554,140.381607 51.191700,137.201675 
	C59.209877,133.925690 66.611855,129.012375 73.986633,124.346336 
	C77.563400,122.083321 80.461952,118.748360 84.242401,115.387672 
	C87.584999,119.282600 90.819969,123.052109 94.332825,127.145416 
	C81.663429,139.468613 67.408127,150.198853 48.483402,152.647263 
	C35.322701,154.349945 26.964108,147.469864 25.871918,133.823486 
z"/>
<path fill="#060606" opacity="1.000000" stroke="none" 
	d="
M94.264145,94.752075 
	C88.449944,89.244339 82.887337,83.985092 76.928307,78.351036 
	C85.363716,69.962395 94.192955,62.326706 105.959702,59.263962 
	C113.222527,57.373528 117.174171,61.656937 115.540031,69.078209 
	C113.677666,77.535950 107.230103,88.389153 98.125587,98.225349 
	C96.927765,97.155296 95.721756,96.077934 94.264145,94.752075 
z"/>
</svg>