<svg version="1.1" id="Layer_1" xmlns="http://www.w3.org/2000/svg" xmlns:xlink="http://www.w3.org/1999/xlink" x="0px" y="0px"
	 width="100%" viewBox="0 0 200 200" enable-background="new 0 0 200 200" xml:space="preserve">
<path fill="#020101" opacity="1.000000" stroke="none" 
	d="
M63.000000,201.000000 
	C52.979107,201.000000 42.958210,201.000000 32.326904,200.597626 
	C31.937685,198.915802 31.894596,197.510727 32.431442,196.381302 
	C33.836201,193.425949 36.053249,190.754944 36.955166,187.679840 
	C40.962784,174.015823 41.436127,159.864807 41.689308,145.771103 
	C41.840900,137.332321 41.018555,128.875732 40.615570,120.428009 
	C40.584141,119.769089 40.428520,119.112770 40.295197,118.462509 
	C37.548084,105.063660 34.836391,91.657288 32.004589,78.276329 
	C31.533295,76.049362 30.358265,73.977081 29.816175,71.758133 
	C28.700403,67.190926 27.792620,62.572903 26.774532,57.861416 
	C33.889614,56.370171 33.799225,62.439457 35.794991,65.242882 
	C38.129520,68.522156 38.668407,73.079765 39.986271,77.082809 
	C40.664707,54.639481 40.684898,32.361694 40.609360,10.084234 
	C40.605274,8.879707 39.840347,7.661002 39.356670,6.478733 
	C38.604019,4.639025 37.788738,2.824942 37.000000,0.999999 
	C91.020897,1.000000 145.041794,1.000000 199.484833,1.466646 
	C199.836853,14.606870 199.766739,27.280447 199.247375,39.950912 
	C194.136719,39.964954 189.475296,39.986889 184.813858,39.998116 
	C178.042542,40.014427 178.035660,40.011135 178.035126,47.020855 
	C178.032501,80.651794 178.033829,114.282738 178.033966,147.913681 
	C178.034012,160.233917 178.148773,172.555801 177.968872,184.873413 
	C177.911209,188.821533 179.334610,190.210358 183.221069,190.054077 
	C188.705399,189.833542 194.206390,190.027496 199.780457,190.493271 
	C199.907104,194.294876 199.953552,197.647430 200.000000,201.000000 
	C169.645767,201.000000 139.291550,201.000000 108.479332,200.605667 
	C109.217216,198.490723 110.366219,196.734741 111.627548,195.063538 
	C112.320122,194.145889 113.641960,193.498566 113.927956,192.511459 
	C115.961746,185.491928 118.746208,178.514679 119.495209,171.336533 
	C120.831375,158.531281 120.362404,145.680191 114.677879,133.614182 
	C113.680527,131.497192 113.823532,128.760803 110.613640,128.178070 
	C110.249565,128.111969 109.742561,125.401878 110.294800,124.612144 
	C110.944977,123.682327 112.656242,123.145950 113.944946,123.069176 
	C120.973152,122.650520 120.977539,122.717209 120.981987,115.764130 
	C120.983475,113.436653 120.828110,111.096756 121.014450,108.784294 
	C121.399155,104.010262 121.132614,99.878448 114.339096,100.784431 
	C114.208611,98.953674 113.803642,97.445290 114.051407,96.053070 
	C115.394669,88.505119 117.239891,81.031876 118.264694,73.445442 
	C119.641747,63.251217 119.854660,53.049648 115.124001,43.415276 
	C113.946190,41.016586 113.007431,38.500519 111.957634,35.619652 
	C111.403824,34.498333 110.877258,33.212811 110.294319,33.186714 
	C106.151138,33.001251 101.993233,32.990788 97.848824,33.151611 
	C97.220642,33.175987 96.638161,34.377876 96.026115,35.446320 
	C95.265762,37.249298 94.597839,38.695839 93.736710,40.016388 
	C92.978371,41.179276 91.320305,42.148167 91.231255,43.293812 
	C90.374763,54.312210 89.375648,65.346481 89.278694,76.383766 
	C89.239609,80.834129 90.723396,85.578529 92.591164,89.701157 
	C95.619041,96.384430 94.436150,100.029526 87.011269,101.845566 
	C87.011269,108.128059 87.011269,114.560471 87.020821,121.405807 
	C88.062683,122.545258 89.034340,123.763222 90.139488,123.899628 
	C92.719170,124.218033 95.362999,124.016655 97.985153,124.420509 
	C97.985474,125.867737 97.981483,126.920273 97.583939,127.981110 
	C95.792709,128.658875 94.395035,129.328339 92.873955,130.292847 
	C92.515343,131.393982 92.280136,132.200058 91.747467,133.141586 
	C90.985657,134.195572 90.521301,135.114120 90.043930,136.458130 
	C89.353844,145.072128 88.339729,153.251068 88.106316,161.452240 
	C87.919540,168.014786 87.705414,174.855515 89.313713,181.107071 
	C90.751160,186.694458 91.480316,193.720505 99.000000,196.099533 
	C99.000000,197.711166 99.000000,199.355576 99.000000,201.000000 
	C89.645775,201.000000 80.291542,201.000000 70.467575,200.572388 
	C70.076820,198.675934 70.155807,197.207108 70.251205,195.432999 
	C76.231445,195.409744 76.787018,190.576050 77.911743,186.674835 
	C81.501953,174.221848 81.703857,161.362152 80.829185,148.611313 
	C80.328087,141.306396 79.651527,133.585464 73.793495,127.748169 
	C73.279175,127.235680 74.382706,124.350166 75.443962,123.252510 
	C76.235954,122.433350 78.172394,122.720680 80.006363,122.456642 
	C80.006363,114.858162 79.940193,107.553741 80.059387,100.252350 
	C80.084755,98.698944 80.450089,96.026001 81.229599,95.794991 
	C85.830254,94.431572 84.943176,90.908302 84.962532,87.692360 
	C84.992622,82.693863 85.054848,77.692635 84.913681,72.697929 
	C84.874557,71.313477 84.374474,68.870567 83.729012,68.744797 
	C78.716141,67.768036 80.111015,63.998779 80.030228,60.934406 
	C79.924873,56.938156 80.163956,52.925323 79.879776,48.946419 
	C79.806244,47.916878 78.226418,46.107841 77.523903,46.192650 
	C76.002739,46.376282 74.144714,47.227249 73.291321,48.423630 
	C72.569267,49.435883 73.032249,51.318222 73.030632,52.815567 
	C73.019791,62.814728 73.025002,72.813904 73.025002,82.813072 
	C72.266716,82.504898 72.078819,82.208961 72.058807,81.902077 
	C71.358299,71.156830 70.814011,60.397747 69.836914,49.678059 
	C69.688431,48.049118 67.541924,46.602295 66.319580,45.071239 
	C65.201195,46.457890 63.444370,47.699844 63.090828,49.259830 
	C62.224113,53.084175 62.004654,57.055206 61.576355,60.546665 
	C60.896832,56.593723 60.400143,52.176548 59.242477,47.939991 
	C58.913101,46.734627 56.741909,45.802666 55.231571,45.318069 
	C54.872135,45.202744 53.208954,47.339874 53.105129,48.525036 
	C52.267033,58.091839 51.683777,67.680626 50.973351,77.259041 
	C49.981186,90.636032 49.056385,104.019554 47.878799,117.380547 
	C47.365463,123.204903 47.525364,123.554848 54.013874,122.218086 
	C54.800266,112.475479 55.601154,102.553307 56.402039,92.631134 
	C56.945541,92.662903 57.489044,92.694672 58.032547,92.726440 
	C58.032547,99.438972 58.035915,106.151497 58.030884,112.864021 
	C58.028885,115.529373 57.367558,118.400398 58.142120,120.813194 
	C59.390354,124.701485 61.622402,128.260864 55.707005,130.151047 
	C55.277687,130.288223 55.236977,131.634689 55.011532,132.417725 
	C50.841965,146.899979 51.974594,161.753784 52.114368,176.509949 
	C52.149879,180.258759 53.012882,184.137619 54.241108,187.699692 
	C55.550304,191.496597 56.262325,196.533966 63.000000,195.130417 
	C63.000000,197.421860 63.000000,199.210938 63.000000,201.000000 
M133.757156,79.297195 
	C134.799332,74.436516 135.750168,69.552925 136.958771,64.733978 
	C137.208054,63.740097 138.418060,62.987164 139.185257,62.123180 
	C139.791443,62.952450 140.769196,63.710056 140.945145,64.622307 
	C142.373993,72.030449 143.555817,79.487488 145.076431,86.875374 
	C145.317673,88.047371 146.841476,89.711601 147.839767,89.760117 
	C148.850311,89.809227 150.864777,88.130539 150.859818,87.217247 
	C150.810181,78.090202 151.182251,68.861198 149.935593,59.868874 
	C148.733475,51.197731 145.765091,42.771454 143.395432,33.547691 
	C140.228302,34.196854 137.277664,33.934162 136.460175,35.129875 
	C133.882446,38.900227 131.037567,43.017094 130.221680,47.361496 
	C127.966599,59.369190 125.931335,71.516068 125.220016,83.690353 
	C124.380653,98.056213 124.890625,112.510033 125.059586,126.922852 
	C125.197838,138.716187 125.038567,150.571655 126.223228,162.276917 
	C127.321358,173.127289 129.081375,184.170425 135.916412,193.288284 
	C136.876602,194.569168 140.707428,195.313904 141.884842,194.466446 
	C144.067825,192.895187 146.105194,190.169754 146.746429,187.566177 
	C150.323959,173.040680 151.574921,158.190872 152.046997,143.263718 
	C152.134811,140.486572 150.701920,139.996109 148.329163,139.950592 
	C145.612427,139.898468 145.231033,141.234116 144.879669,143.592422 
	C143.842514,150.553635 142.454681,157.465790 141.053757,164.366623 
	C140.801453,165.609360 139.834732,166.707062 139.197861,167.871735 
	C138.339355,166.690903 136.902664,165.595047 136.714630,164.315689 
	C135.321533,154.837204 133.351944,145.341446 133.129547,135.814560 
	C132.696533,117.265022 133.286346,98.691605 133.757156,79.297195 
M157.252579,63.033211 
	C156.843491,74.972008 156.347046,86.908798 156.071960,98.850685 
	C155.973679,103.117500 156.819443,107.425873 156.516251,111.663910 
	C155.939102,119.731148 154.356339,127.745911 154.100327,135.811325 
	C153.832626,144.244827 155.150436,152.732880 154.814026,161.158707 
	C154.516724,168.604996 158.847626,172.866089 163.054062,177.492966 
	C164.828400,174.266037 166.428894,171.355270 168.732895,167.165039 
	C168.579422,173.236511 171.901749,173.795715 175.061813,172.654419 
	C176.088272,172.283707 176.477051,168.590439 176.227463,166.529526 
	C175.414215,159.814270 173.352493,153.159256 173.285370,146.465881 
	C173.184402,136.396317 174.474533,126.318230 174.867310,116.231842 
	C174.920273,114.871758 173.196930,113.442497 172.296112,112.045280 
	C171.206573,113.540726 169.405563,114.934799 169.175064,116.552643 
	C168.689651,119.959602 169.027496,123.483856 169.027496,126.959969 
	C167.449280,122.389862 165.395874,117.372002 166.447723,113.122826 
	C169.173279,102.112274 168.987106,91.073059 169.036194,79.961319 
	C169.070618,72.169121 168.151718,64.675415 163.027634,58.622162 
	C161.217331,59.921288 159.483994,61.165169 157.252579,63.033211 
z"/>
<path fill="#211E1F" opacity="1.000000" stroke="none" 
	d="
M99.449982,201.000000 
	C99.000000,199.355576 99.000000,197.711166 99.000000,196.099533 
	C91.480316,193.720505 90.751160,186.694458 89.313713,181.107071 
	C87.705414,174.855515 87.919540,168.014786 88.106316,161.452240 
	C88.339729,153.251068 89.353844,145.072128 90.359589,136.416260 
	C91.140472,134.967987 91.592705,133.987076 92.044930,133.006149 
	C92.280136,132.200058 92.515343,131.393982 93.270676,130.294785 
	C95.186371,129.325394 96.581932,128.649109 97.977493,127.972809 
	C97.981483,126.920273 97.985474,125.867737 97.926926,124.046753 
	C94.246689,122.516502 90.628975,121.754692 87.011269,120.992882 
	C87.011269,114.560471 87.011269,108.128059 87.011269,101.845566 
	C94.436150,100.029526 95.619041,96.384430 92.591164,89.701157 
	C90.723396,85.578529 89.239609,80.834129 89.278694,76.383766 
	C89.375648,65.346481 90.374763,54.312210 91.231255,43.293812 
	C91.320305,42.148167 92.978371,41.179276 93.736710,40.016388 
	C94.597839,38.695839 95.265762,37.249298 96.485748,35.435764 
	C101.955467,35.355469 106.957130,35.696934 111.958794,36.038399 
	C113.007431,38.500519 113.946190,41.016586 115.124001,43.415276 
	C119.854660,53.049648 119.641747,63.251217 118.264694,73.445442 
	C117.239891,81.031876 115.394669,88.505119 114.051407,96.053070 
	C113.803642,97.445290 114.208611,98.953674 114.339096,100.784431 
	C121.132614,99.878448 121.399155,104.010262 121.014450,108.784294 
	C120.828110,111.096756 120.983475,113.436653 120.981987,115.764130 
	C120.977539,122.717209 120.973152,122.650520 113.944946,123.069176 
	C112.656242,123.145950 110.944977,123.682327 110.294800,124.612144 
	C109.742561,125.401878 110.249565,128.111969 110.613640,128.178070 
	C113.823532,128.760803 113.680527,131.497192 114.677879,133.614182 
	C120.362404,145.680191 120.831375,158.531281 119.495209,171.336533 
	C118.746208,178.514679 115.961746,185.491928 113.927956,192.511459 
	C113.641960,193.498566 112.320122,194.145889 111.627548,195.063538 
	C110.366219,196.734741 109.217216,198.490723 108.010674,200.605667 
	C105.299988,201.000000 102.599968,201.000000 99.449982,201.000000 
M95.995827,159.716354 
	C96.382050,164.066086 96.768272,168.415817 97.175690,173.004257 
	C100.953720,173.004257 104.000961,173.411987 106.852531,172.841583 
	C108.405113,172.531006 110.080429,170.796875 110.873322,169.274139 
	C111.739891,167.609924 111.590096,165.435760 111.990379,163.506058 
	C113.489609,156.278564 108.117355,151.556931 105.469025,145.862549 
	C105.272835,145.440704 102.658272,145.579056 102.631660,145.724594 
	C101.711342,150.757874 94.862206,152.794388 95.995827,159.716354 
M111.506493,63.272217 
	C110.335434,61.555099 109.437370,59.518021 107.911797,58.216404 
	C106.553459,57.057468 104.486839,56.137730 102.757950,56.178497 
	C101.185295,56.215580 98.942314,57.295113 98.218765,58.595921 
	C95.567383,63.362602 95.616859,68.455399 98.019760,73.984207 
	C100.570709,73.984207 103.362709,73.842339 106.133896,74.021782 
	C109.271103,74.224930 110.712868,72.835419 110.986908,69.815186 
	C111.163818,67.865349 111.538055,65.933418 111.506493,63.272217 
M105.344757,95.088188 
	C103.638260,95.688454 101.647438,95.952477 100.356445,97.044121 
	C99.790451,97.522720 100.191444,100.137886 100.995110,100.966164 
	C101.811569,101.807632 103.904800,102.248764 105.019417,101.806946 
	C108.516373,100.420792 107.105469,97.761406 105.344757,95.088188 
z"/>
<path fill="#221E1F" opacity="1.000000" stroke="none" 
	d="
M63.437500,201.000000 
	C63.000000,199.210938 63.000000,197.421860 63.000000,195.130417 
	C56.262325,196.533966 55.550304,191.496597 54.241108,187.699692 
	C53.012882,184.137619 52.149879,180.258759 52.114368,176.509949 
	C51.974594,161.753784 50.841965,146.899979 55.011532,132.417725 
	C55.236977,131.634689 55.277687,130.288223 55.707005,130.151047 
	C61.622402,128.260864 59.390354,124.701485 58.142120,120.813194 
	C57.367558,118.400398 58.028885,115.529373 58.030884,112.864021 
	C58.035915,106.151497 58.032547,99.438972 58.032547,92.726440 
	C57.489044,92.694672 56.945541,92.662903 56.402039,92.631134 
	C55.601154,102.553307 54.800266,112.475479 54.013874,122.218086 
	C47.525364,123.554848 47.365463,123.204903 47.878799,117.380547 
	C49.056385,104.019554 49.981186,90.636032 50.973351,77.259041 
	C51.683777,67.680626 52.267033,58.091839 53.105129,48.525036 
	C53.208954,47.339874 54.872135,45.202744 55.231571,45.318069 
	C56.741909,45.802666 58.913101,46.734627 59.242477,47.939991 
	C60.400143,52.176548 60.896832,56.593723 61.576355,60.546665 
	C62.004654,57.055206 62.224113,53.084175 63.090828,49.259830 
	C63.444370,47.699844 65.201195,46.457890 66.319580,45.071239 
	C67.541924,46.602295 69.688431,48.049118 69.836914,49.678059 
	C70.814011,60.397747 71.358299,71.156830 72.058807,81.902077 
	C72.078819,82.208961 72.266716,82.504898 73.025002,82.813072 
	C73.025002,72.813904 73.019791,62.814728 73.030632,52.815567 
	C73.032249,51.318222 72.569267,49.435883 73.291321,48.423630 
	C74.144714,47.227249 76.002739,46.376282 77.523903,46.192650 
	C78.226418,46.107841 79.806244,47.916878 79.879776,48.946419 
	C80.163956,52.925323 79.924873,56.938156 80.030228,60.934406 
	C80.111015,63.998779 78.716141,67.768036 83.729012,68.744797 
	C84.374474,68.870567 84.874557,71.313477 84.913681,72.697929 
	C85.054848,77.692635 84.992622,82.693863 84.962532,87.692360 
	C84.943176,90.908302 85.830254,94.431572 81.229599,95.794991 
	C80.450089,96.026001 80.084755,98.698944 80.059387,100.252350 
	C79.940193,107.553741 80.006363,114.858162 80.006363,122.456642 
	C78.172394,122.720680 76.235954,122.433350 75.443962,123.252510 
	C74.382706,124.350166 73.279175,127.235680 73.793495,127.748169 
	C79.651527,133.585464 80.328087,141.306396 80.829185,148.611313 
	C81.703857,161.362152 81.501953,174.221848 77.911743,186.674835 
	C76.787018,190.576050 76.231445,195.409744 70.251205,195.432999 
	C70.155807,197.207108 70.076820,198.675934 69.998917,200.572388 
	C67.958336,201.000000 65.916664,201.000000 63.437500,201.000000 
M64.103523,121.705460 
	C65.172119,122.443428 66.240723,123.181396 67.309326,123.919357 
	C67.855927,122.935730 68.402527,121.952103 68.968063,120.082245 
	C68.619621,112.403397 68.271187,104.724541 67.875854,96.365814 
	C66.407089,94.394859 65.498093,94.709801 65.055649,97.978333 
	C64.722961,105.640335 64.390282,113.302330 64.103523,121.705460 
M69.175240,172.998123 
	C70.113838,172.301910 71.639084,171.776733 71.899666,170.882858 
	C74.321587,162.574814 73.266876,154.516144 69.111832,147.018555 
	C68.565788,146.033218 64.828522,145.427856 64.382713,146.017532 
	C62.521255,148.479675 60.364193,151.386581 60.134171,154.275269 
	C59.650280,160.352020 60.310627,166.519897 60.512417,173.006241 
	C64.003448,173.006241 66.141724,173.006241 69.175240,172.998123 
z"/>
<path fill="#E61B3A" opacity="1.000000" stroke="none" 
	d="
M36.531731,0.999999 
	C37.788738,2.824942 38.604019,4.639025 39.356670,6.478733 
	C39.840347,7.661002 40.605274,8.879707 40.609360,10.084234 
	C40.684898,32.361694 40.664707,54.639481 39.986271,77.082809 
	C38.668407,73.079765 38.129520,68.522156 35.794991,65.242882 
	C33.799225,62.439457 33.889614,56.370171 26.774532,57.861416 
	C27.792620,62.572903 28.700403,67.190926 29.816175,71.758133 
	C30.358265,73.977081 31.533295,76.049362 32.004589,78.276329 
	C34.836391,91.657288 37.548084,105.063660 40.295197,118.462509 
	C40.428520,119.112770 40.584141,119.769089 40.615570,120.428009 
	C41.018555,128.875732 41.840900,137.332321 41.689308,145.771103 
	C41.436127,159.864807 40.962784,174.015823 36.955166,187.679840 
	C36.053249,190.754944 33.836201,193.425949 32.431442,196.381302 
	C31.894596,197.510727 31.937685,198.915802 31.858246,200.597626 
	C30.285643,201.000000 28.571283,201.000000 26.420837,200.597778 
	C25.217754,198.163483 24.450764,196.131393 23.720608,193.669495 
	C24.942047,185.369904 26.975681,177.516922 27.131310,169.626862 
	C27.438156,154.070496 27.608297,138.403717 26.073629,122.957581 
	C25.094061,113.098434 20.597717,103.635353 18.341881,93.841812 
	C16.485722,85.783432 14.896776,77.537598 14.461298,69.307533 
	C13.815136,57.095749 13.814468,44.800148 14.436788,32.585964 
	C14.974915,22.024210 16.763931,11.526192 18.000000,1.000000 
	C24.021152,1.000000 30.042305,1.000000 36.531731,0.999999 
z"/>
<path fill="#929188" opacity="1.000000" stroke="none" 
	d="
M17.562500,1.000000 
	C16.763931,11.526192 14.974915,22.024210 14.436788,32.585964 
	C13.814468,44.800148 13.815136,57.095749 14.461298,69.307533 
	C14.896776,77.537598 16.485722,85.783432 18.341881,93.841812 
	C20.597717,103.635353 25.094061,113.098434 26.073629,122.957581 
	C27.608297,138.403717 27.438156,154.070496 27.131310,169.626862 
	C26.975681,177.516922 24.942047,185.369904 23.414747,193.792709 
	C22.381367,196.563843 21.690683,198.781921 21.000000,201.000000 
	C14.363862,201.000000 7.727723,201.000000 1.000000,201.000000 
	C1.000000,175.979172 1.000000,150.958252 1.346865,125.640274 
	C4.129296,132.120895 6.564863,138.898544 8.842030,145.235413 
	C12.681444,146.257233 15.112174,145.841766 14.511384,142.176758 
	C13.489411,135.942413 12.470628,129.636215 10.589093,123.630066 
	C7.394004,113.430855 3.196939,103.541801 3.081992,92.581139 
	C3.065903,91.046982 1.726724,89.526703 0.999999,88.000000 
	C1.000000,67.312439 1.000000,46.624878 1.366675,25.666862 
	C2.551075,22.396925 3.248251,19.357727 4.219682,16.408880 
	C5.235831,13.324287 5.700015,8.799589 7.867625,7.641783 
	C11.284754,5.816557 11.249805,3.812759 11.000000,1.000000 
	C13.041667,1.000000 15.083333,1.000000 17.562500,1.000000 
z"/>
<path fill="#0A0A0A" opacity="1.000000" stroke="none" 
	d="
M0.999999,88.468658 
	C1.726724,89.526703 3.065903,91.046982 3.081992,92.581139 
	C3.196939,103.541801 7.394004,113.430855 10.589093,123.630066 
	C12.470628,129.636215 13.489411,135.942413 14.511384,142.176758 
	C15.112174,145.841766 12.681444,146.257233 8.842030,145.235413 
	C6.564863,138.898544 4.129296,132.120895 1.346865,125.171616 
	C1.000000,112.979103 1.000000,100.958214 0.999999,88.468658 
z"/>
<path fill="#FFFFFF" opacity="1.000000" stroke="none" 
	d="
M200.500000,201.000000 
	C199.953552,197.647430 199.907104,194.294876 199.881927,190.031525 
	C199.835770,180.067780 199.768341,171.014832 199.781555,161.501831 
	C199.823685,150.327911 199.785187,139.614029 199.849426,128.514679 
	C199.883438,119.123589 199.814743,110.117958 199.815430,100.666222 
	C199.822800,89.820999 199.760803,79.421883 199.792786,68.653458 
	C199.820572,67.529282 199.754395,66.774406 199.783142,65.558365 
	C199.817596,56.716141 199.757095,48.335083 199.696609,39.954025 
	C199.766739,27.280447 199.836853,14.606870 199.953476,1.466647 
	C200.333328,2.333335 200.957306,3.666457 200.958282,5.000032 
	C201.005936,70.333328 201.000000,135.666672 200.500000,201.000000 
z"/>
<path fill="#0B0B0A" opacity="1.000000" stroke="none" 
	d="
M10.513435,1.000000 
	C11.249805,3.812759 11.284754,5.816557 7.867625,7.641783 
	C5.700015,8.799589 5.235831,13.324287 4.219682,16.408880 
	C3.248251,19.357727 2.551075,22.396925 1.366675,25.198204 
	C1.000000,17.112986 1.000000,9.225972 1.000000,1.000000 
	C4.000474,1.000000 7.013672,1.000000 10.513435,1.000000 
z"/>
<path fill="#271315" opacity="1.000000" stroke="none" 
	d="
M21.416668,201.000000 
	C21.690683,198.781921 22.381367,196.563843 23.377911,194.222534 
	C24.450764,196.131393 25.217754,198.163483 25.992374,200.597778 
	C24.611111,201.000000 23.222221,201.000000 21.416668,201.000000 
z"/>
<path fill="#231F20" opacity="1.000000" stroke="none" 
	d="
M199.700912,161.961868 
	C199.768341,171.014832 199.835770,180.067780 199.801727,189.582489 
	C194.206390,190.027496 188.705399,189.833542 183.221069,190.054077 
	C179.334610,190.210358 177.911209,188.821533 177.968872,184.873413 
	C178.148773,172.555801 178.034012,160.233917 178.033966,147.913681 
	C178.033829,114.282738 178.032501,80.651794 178.035126,47.020855 
	C178.035660,40.011135 178.042542,40.014427 184.813858,39.998116 
	C189.475296,39.986889 194.136719,39.964954 199.247375,39.950912 
	C199.757095,48.335083 199.817596,56.716141 199.338882,65.562195 
	C195.558044,66.020531 192.273926,65.706085 189.093826,66.145149 
	C187.639832,66.345894 186.390747,68.030914 185.039124,69.508629 
	C185.024109,78.261314 185.189896,86.553230 184.943588,94.832878 
	C184.813644,99.200943 186.857269,100.863693 190.798447,100.985733 
	C193.779434,101.078018 196.763412,101.073662 199.746063,101.112320 
	C199.814743,110.117958 199.883438,119.123589 199.329163,128.530060 
	C195.552475,128.951920 192.396530,129.055084 189.245712,128.969803 
	C186.353378,128.891510 184.963348,130.026108 184.991196,133.048416 
	C185.067642,141.347549 185.067459,149.648300 184.991104,157.947433 
	C184.963303,160.968582 186.350525,162.111389 189.244614,162.023987 
	C192.727493,161.918839 196.215256,161.975357 199.700912,161.961868 
z"/>
<path fill="#211D1E" opacity="1.000000" stroke="none" 
	d="
M133.604828,79.712631 
	C133.286346,98.691605 132.696533,117.265022 133.129547,135.814560 
	C133.351944,145.341446 135.321533,154.837204 136.714630,164.315689 
	C136.902664,165.595047 138.339355,166.690903 139.197861,167.871735 
	C139.834732,166.707062 140.801453,165.609360 141.053757,164.366623 
	C142.454681,157.465790 143.842514,150.553635 144.879669,143.592422 
	C145.231033,141.234116 145.612427,139.898468 148.329163,139.950592 
	C150.701920,139.996109 152.134811,140.486572 152.046997,143.263718 
	C151.574921,158.190872 150.323959,173.040680 146.746429,187.566177 
	C146.105194,190.169754 144.067825,192.895187 141.884842,194.466446 
	C140.707428,195.313904 136.876602,194.569168 135.916412,193.288284 
	C129.081375,184.170425 127.321358,173.127289 126.223228,162.276917 
	C125.038567,150.571655 125.197838,138.716187 125.059586,126.922852 
	C124.890625,112.510033 124.380653,98.056213 125.220016,83.690353 
	C125.931335,71.516068 127.966599,59.369190 130.221680,47.361496 
	C131.037567,43.017094 133.882446,38.900227 136.460175,35.129875 
	C137.277664,33.934162 140.228302,34.196854 143.395432,33.547691 
	C145.765091,42.771454 148.733475,51.197731 149.935593,59.868874 
	C151.182251,68.861198 150.810181,78.090202 150.859818,87.217247 
	C150.864777,88.130539 148.850311,89.809227 147.839767,89.760117 
	C146.841476,89.711601 145.317673,88.047371 145.076431,86.875374 
	C143.555817,79.487488 142.373993,72.030449 140.945145,64.622307 
	C140.769196,63.710056 139.791443,62.952450 139.185257,62.123177 
	C138.418060,62.987164 137.208054,63.740097 136.958771,64.733978 
	C135.750168,69.552925 134.799332,74.436516 133.604828,79.712631 
z"/>
<path fill="#221E1F" opacity="1.000000" stroke="none" 
	d="
M157.501617,62.721130 
	C159.483994,61.165169 161.217331,59.921288 163.027634,58.622162 
	C168.151718,64.675415 169.070618,72.169121 169.036194,79.961319 
	C168.987106,91.073059 169.173279,102.112274 166.447723,113.122826 
	C165.395874,117.372002 167.449280,122.389862 169.027496,126.959969 
	C169.027496,123.483856 168.689651,119.959602 169.175064,116.552643 
	C169.405563,114.934799 171.206573,113.540726 172.296112,112.045273 
	C173.196930,113.442497 174.920273,114.871758 174.867310,116.231842 
	C174.474533,126.318230 173.184402,136.396317 173.285370,146.465881 
	C173.352493,153.159256 175.414215,159.814270 176.227463,166.529526 
	C176.477051,168.590439 176.088272,172.283707 175.061813,172.654419 
	C171.901749,173.795715 168.579422,173.236511 168.732895,167.165039 
	C166.428894,171.355270 164.828400,174.266037 163.054062,177.492966 
	C158.847626,172.866089 154.516724,168.604996 154.814026,161.158707 
	C155.150436,152.732880 153.832626,144.244827 154.100327,135.811325 
	C154.356339,127.745911 155.939102,119.731148 156.516251,111.663910 
	C156.819443,107.425873 155.973679,103.117500 156.071960,98.850685 
	C156.347046,86.908798 156.843491,74.972008 157.501617,62.721130 
M161.292267,155.066681 
	C162.190338,154.560928 163.662399,154.242645 163.898209,153.520615 
	C166.418716,145.802399 162.737320,138.825668 160.998169,131.562393 
	C158.374039,139.179703 157.849319,146.749496 161.292267,155.066681 
M161.019272,81.931343 
	C161.305206,86.220505 160.328644,90.682930 161.672485,94.826904 
	C162.391190,94.793442 163.109909,94.759987 163.828613,94.726524 
	C163.828613,89.949898 163.828613,85.173264 163.828613,80.396637 
	C162.902802,80.615715 161.976990,80.834793 161.019272,81.931343 
z"/>
<path fill="#100E0F" opacity="1.000000" stroke="none" 
	d="
M111.957634,35.619648 
	C106.957130,35.696934 101.955467,35.355469 96.494171,35.024555 
	C96.638161,34.377876 97.220642,33.175987 97.848824,33.151611 
	C101.993233,32.990788 106.151138,33.001251 110.294319,33.186714 
	C110.877258,33.212811 111.403824,34.498333 111.957634,35.619648 
z"/>
<path fill="#161314" opacity="1.000000" stroke="none" 
	d="
M87.020821,121.405807 
	C90.628975,121.754692 94.246689,122.516502 97.922623,123.652061 
	C95.362999,124.016655 92.719170,124.218033 90.139488,123.899628 
	C89.034340,123.763222 88.062683,122.545258 87.020821,121.405807 
z"/>
<path fill="#151213" opacity="1.000000" stroke="none" 
	d="
M97.583939,127.981110 
	C96.581932,128.649109 95.186371,129.325394 93.394089,129.999741 
	C94.395035,129.328339 95.792709,128.658875 97.583939,127.981110 
z"/>
<path fill="#151213" opacity="1.000000" stroke="none" 
	d="
M91.747467,133.141586 
	C91.592705,133.987076 91.140472,134.967987 90.372597,135.990784 
	C90.521301,135.114120 90.985657,134.195572 91.747467,133.141586 
z"/>
<path fill="#030202" opacity="1.000000" stroke="none" 
	d="
M96.000443,159.260132 
	C94.862206,152.794388 101.711342,150.757874 102.631660,145.724594 
	C102.658272,145.579056 105.272835,145.440704 105.469025,145.862549 
	C108.117355,151.556931 113.489609,156.278564 111.990379,163.506058 
	C111.590096,165.435760 111.739891,167.609924 110.873322,169.274139 
	C110.080429,170.796875 108.405113,172.531006 106.852531,172.841583 
	C104.000961,173.411987 100.953720,173.004257 97.175690,173.004257 
	C96.768272,168.415817 96.382050,164.066086 96.000443,159.260132 
z"/>
<path fill="#040404" opacity="1.000000" stroke="none" 
	d="
M111.665176,63.632835 
	C111.538055,65.933418 111.163818,67.865349 110.986908,69.815186 
	C110.712868,72.835419 109.271103,74.224930 106.133896,74.021782 
	C103.362709,73.842339 100.570709,73.984207 98.019760,73.984207 
	C95.616859,68.455399 95.567383,63.362602 98.218765,58.595921 
	C98.942314,57.295113 101.185295,56.215580 102.757950,56.178497 
	C104.486839,56.137730 106.553459,57.057468 107.911797,58.216404 
	C109.437370,59.518021 110.335434,61.555099 111.665176,63.632835 
z"/>
<path fill="#0B0A0A" opacity="1.000000" stroke="none" 
	d="
M105.744179,95.222252 
	C107.105469,97.761406 108.516373,100.420792 105.019417,101.806946 
	C103.904800,102.248764 101.811569,101.807632 100.995110,100.966164 
	C100.191444,100.137886 99.790451,97.522720 100.356445,97.044121 
	C101.647438,95.952477 103.638260,95.688454 105.744179,95.222252 
z"/>
<path fill="#020202" opacity="1.000000" stroke="none" 
	d="
M68.727615,173.002182 
	C66.141724,173.006241 64.003448,173.006241 60.512417,173.006241 
	C60.310627,166.519897 59.650280,160.352020 60.134171,154.275269 
	C60.364193,151.386581 62.521255,148.479675 64.382713,146.017532 
	C64.828522,145.427856 68.565788,146.033218 69.111832,147.018555 
	C73.266876,154.516144 74.321587,162.574814 71.899666,170.882858 
	C71.639084,171.776733 70.113838,172.301910 68.727615,173.002182 
z"/>
<path fill="#010101" opacity="1.000000" stroke="none" 
	d="
M67.922752,97.045685 
	C68.271187,104.724541 68.619621,112.403397 68.551651,120.537056 
	C66.776031,120.982689 65.416809,120.973511 64.057602,120.964333 
	C64.390282,113.302330 64.722961,105.640335 65.424088,97.500183 
	C66.502594,97.029922 67.212677,97.037804 67.922752,97.045685 
z"/>
<path fill="#0E0C0D" opacity="1.000000" stroke="none" 
	d="
M64.080559,121.334900 
	C65.416809,120.973511 66.776031,120.982689 68.542191,120.980164 
	C68.402527,121.952103 67.855927,122.935730 67.309326,123.919357 
	C66.240723,123.181396 65.172119,122.443428 64.080559,121.334900 
z"/>
<path fill="#0E0C0D" opacity="1.000000" stroke="none" 
	d="
M67.899307,96.705750 
	C67.212677,97.037804 66.502594,97.029922 65.438690,97.035652 
	C65.498093,94.709801 66.407089,94.394859 67.899307,96.705750 
z"/>
<path fill="#020202" opacity="1.000000" stroke="none" 
	d="
M199.781555,161.501831 
	C196.215256,161.975357 192.727493,161.918839 189.244614,162.023987 
	C186.350525,162.111389 184.963303,160.968582 184.991104,157.947433 
	C185.067459,149.648300 185.067642,141.347549 184.991196,133.048416 
	C184.963348,130.026108 186.353378,128.891510 189.245712,128.969803 
	C192.396530,129.055084 195.552475,128.951920 199.226440,128.915527 
	C199.785187,139.614029 199.823685,150.327911 199.781555,161.501831 
z"/>
<path fill="#010101" opacity="1.000000" stroke="none" 
	d="
M199.815430,100.666222 
	C196.763412,101.073662 193.779434,101.078018 190.798447,100.985733 
	C186.857269,100.863693 184.813644,99.200943 184.943588,94.832878 
	C185.189896,86.553230 185.024109,78.261314 185.498276,69.494110 
	C190.544296,69.016731 195.121536,69.019745 199.698792,69.022751 
	C199.760803,79.421883 199.822800,89.820999 199.815430,100.666222 
z"/>
<path fill="#131011" opacity="1.000000" stroke="none" 
	d="
M199.792786,68.653458 
	C195.121536,69.019745 190.544296,69.016731 185.507889,69.028244 
	C186.390747,68.030914 187.639832,66.345894 189.093826,66.145149 
	C192.273926,65.706085 195.558044,66.020531 199.243958,66.023361 
	C199.754395,66.774406 199.820572,67.529282 199.792786,68.653458 
z"/>
<path fill="#060506" opacity="1.000000" stroke="none" 
	d="
M161.183395,154.690475 
	C157.849319,146.749496 158.374039,139.179703 160.998169,131.562393 
	C162.737320,138.825668 166.418716,145.802399 163.898209,153.520615 
	C163.662399,154.242645 162.190338,154.560928 161.183395,154.690475 
z"/>
<path fill="#090809" opacity="1.000000" stroke="none" 
	d="
M161.035217,81.492599 
	C161.976990,80.834793 162.902802,80.615715 163.828613,80.396637 
	C163.828613,85.173264 163.828613,89.949898 163.828613,94.726524 
	C163.109909,94.759987 162.391190,94.793442 161.672485,94.826904 
	C160.328644,90.682930 161.305206,86.220505 161.035217,81.492599 
z"/>
</svg>